<svg width="112" height="75" viewBox="0 0 112 75" fill="none" xmlns="http://www.w3.org/2000/svg">
<path d="M20.3438 42.9375H14.4062V59H3.4375V13.5H21.3438C26.7396 13.5 30.9583 14.6979 34 17.0938C37.0417 19.4896 38.5625 22.875 38.5625 27.25C38.5625 30.4167 37.9167 33.0417 36.625 35.125C35.3542 37.2083 33.3542 38.8958 30.625 40.1875L40.125 58.5312V59H28.375L20.3438 42.9375ZM14.4062 34.4688H21.3438C23.4271 34.4688 24.9896 33.9271 26.0312 32.8438C27.0938 31.7396 27.625 30.2083 27.625 28.25C27.625 26.2917 27.0938 24.7604 26.0312 23.6562C24.9688 22.5312 23.4062 21.9688 21.3438 21.9688H14.4062V34.4688ZM65.2812 43.4688H46.5V35.3125H65.2812V43.4688ZM74 59V13.5H88.6562C92.6771 13.5 96.2917 14.4167 99.5 16.25C102.708 18.0625 105.208 20.6354 107 23.9688C108.812 27.2812 109.729 31 109.75 35.125V37.2188C109.75 41.3854 108.865 45.125 107.094 48.4375C105.344 51.7292 102.865 54.3125 99.6562 56.1875C96.4688 58.0417 92.9062 58.9792 88.9688 59H74ZM84.9688 21.9688V50.5625H88.7812C91.9271 50.5625 94.3438 49.4479 96.0312 47.2188C97.7188 44.9688 98.5625 41.6354 98.5625 37.2188V35.25C98.5625 30.8542 97.7188 27.5417 96.0312 25.3125C94.3438 23.0833 91.8854 21.9688 88.6562 21.9688H84.9688Z" fill="#FEFEFE"/>
</svg>
