<svg width="136" height="38" viewBox="0 0 136 38" fill="none" xmlns="http://www.w3.org/2000/svg">
<path d="M10.1719 21.9688H7.20312V30H1.71875V7.25H10.6719C13.3698 7.25 15.4792 7.84896 17 9.04688C18.5208 10.2448 19.2812 11.9375 19.2812 14.125C19.2812 15.7083 18.9583 17.0208 18.3125 18.0625C17.6771 19.1042 16.6771 19.9479 15.3125 20.5938L20.0625 29.7656V30H14.1875L10.1719 21.9688ZM7.20312 17.7344H10.6719C11.7135 17.7344 12.4948 17.4635 13.0156 16.9219C13.5469 16.3698 13.8125 15.6042 13.8125 14.625C13.8125 13.6458 13.5469 12.8802 13.0156 12.3281C12.4844 11.7656 11.7031 11.4844 10.6719 11.4844H7.20312V17.7344Z" fill="#D80032"/>
<path d="M32.6406 22.2344H23.25V18.1562H32.6406V22.2344ZM37 30V7.25H44.3281C46.3385 7.25 48.1458 7.70833 49.75 8.625C51.3542 9.53125 52.6042 10.8177 53.5 12.4844C54.4062 14.1406 54.8646 16 54.875 18.0625V19.1094C54.875 21.1927 54.4323 23.0625 53.5469 24.7188C52.6719 26.3646 51.4323 27.6562 49.8281 28.5938C48.2344 29.5208 46.4531 29.9896 44.4844 30H37ZM42.4844 11.4844V25.7812H44.3906C45.9635 25.7812 47.1719 25.224 48.0156 24.1094C48.8594 22.9844 49.2812 21.3177 49.2812 19.1094V18.125C49.2812 15.9271 48.8594 14.2708 48.0156 13.1562C47.1719 12.0417 45.9427 11.4844 44.3281 11.4844H42.4844ZM65.625 30.3125C63.0312 30.3125 60.9323 29.5417 59.3281 28C57.724 26.4479 56.9219 24.4323 56.9219 21.9531V21.5156C56.9219 19.7865 57.2396 18.2604 57.875 16.9375C58.5208 15.6146 59.4583 14.5938 60.6875 13.875C61.9167 13.1458 63.375 12.7812 65.0625 12.7812C67.4375 12.7812 69.3125 13.5208 70.6875 15C72.0625 16.4688 72.75 18.5208 72.75 21.1562V23.2031H62.2812C62.4688 24.151 62.8802 24.8958 63.5156 25.4375C64.151 25.9792 64.974 26.25 65.9844 26.25C67.651 26.25 68.9531 25.6667 69.8906 24.5L72.2969 27.3438C71.6406 28.25 70.7083 28.974 69.5 29.5156C68.3021 30.0469 67.0104 30.3125 65.625 30.3125ZM65.0312 16.8438C63.4896 16.8438 62.5729 17.8646 62.2812 19.9062H67.5938V19.5C67.6146 18.6562 67.401 18.0052 66.9531 17.5469C66.5052 17.0781 65.8646 16.8438 65.0312 16.8438ZM83.7344 25.25C83.7344 24.8021 83.5 24.4427 83.0312 24.1719C82.5625 23.901 81.6719 23.6198 80.3594 23.3281C79.0469 23.0365 77.9635 22.6562 77.1094 22.1875C76.2552 21.7083 75.6042 21.1302 75.1562 20.4531C74.7083 19.776 74.4844 19 74.4844 18.125C74.4844 16.5729 75.125 15.2969 76.4062 14.2969C77.6875 13.2865 79.3646 12.7812 81.4375 12.7812C83.6667 12.7812 85.4583 13.2865 86.8125 14.2969C88.1667 15.3073 88.8438 16.6354 88.8438 18.2812H83.5625C83.5625 16.9271 82.849 16.25 81.4219 16.25C80.8698 16.25 80.4062 16.4062 80.0312 16.7188C79.6562 17.0208 79.4688 17.401 79.4688 17.8594C79.4688 18.3281 79.6979 18.7083 80.1562 19C80.6146 19.2917 81.3438 19.5312 82.3438 19.7188C83.3542 19.9062 84.2396 20.1302 85 20.3906C87.5417 21.2656 88.8125 22.8333 88.8125 25.0938C88.8125 26.6354 88.125 27.8906 86.75 28.8594C85.3854 29.8281 83.6146 30.3125 81.4375 30.3125C79.9896 30.3125 78.6979 30.0521 77.5625 29.5312C76.4271 29.0104 75.5417 28.3021 74.9062 27.4062C74.2708 26.5104 73.9531 25.5677 73.9531 24.5781H78.875C78.8958 25.3594 79.1562 25.9323 79.6562 26.2969C80.1562 26.651 80.7969 26.8281 81.5781 26.8281C82.2969 26.8281 82.8333 26.6823 83.1875 26.3906C83.5521 26.099 83.7344 25.7188 83.7344 25.25ZM96.8438 30H91.5625V13.0938H96.8438V30ZM91.25 8.73438C91.25 7.98438 91.5208 7.36979 92.0625 6.89062C92.6042 6.41146 93.3073 6.17188 94.1719 6.17188C95.0365 6.17188 95.7396 6.41146 96.2812 6.89062C96.8229 7.36979 97.0938 7.98438 97.0938 8.73438C97.0938 9.48438 96.8229 10.099 96.2812 10.5781C95.7396 11.0573 95.0365 11.2969 94.1719 11.2969C93.3073 11.2969 92.6042 11.0573 92.0625 10.5781C91.5208 10.099 91.25 9.48438 91.25 8.73438ZM99.4844 21.4219C99.4844 19.7135 99.7656 18.2031 100.328 16.8906C100.891 15.5781 101.698 14.5677 102.75 13.8594C103.802 13.1406 105.026 12.7812 106.422 12.7812C108.182 12.7812 109.557 13.375 110.547 14.5625L110.734 13.0938H115.516V29.3594C115.516 30.849 115.167 32.1406 114.469 33.2344C113.781 34.3385 112.781 35.1823 111.469 35.7656C110.156 36.3594 108.635 36.6562 106.906 36.6562C105.667 36.6562 104.464 36.4219 103.297 35.9531C102.141 35.4844 101.255 34.875 100.641 34.125L102.844 31.0312C103.823 32.1875 105.115 32.7656 106.719 32.7656C109.052 32.7656 110.219 31.5677 110.219 29.1719V28.6406C109.208 29.7552 107.932 30.3125 106.391 30.3125C104.328 30.3125 102.661 29.526 101.391 27.9531C100.12 26.3698 99.4844 24.2552 99.4844 21.6094V21.4219ZM104.766 21.75C104.766 23.1354 105.026 24.2344 105.547 25.0469C106.068 25.849 106.797 26.25 107.734 26.25C108.87 26.25 109.698 25.8698 110.219 25.1094V18C109.708 17.2292 108.891 16.8438 107.766 16.8438C106.828 16.8438 106.094 17.2656 105.562 18.1094C105.031 18.9427 104.766 20.1562 104.766 21.75ZM123.344 13.0938L123.516 15.0781C124.682 13.5469 126.292 12.7812 128.344 12.7812C130.104 12.7812 131.417 13.3073 132.281 14.3594C133.156 15.4115 133.609 16.9948 133.641 19.1094V30H128.359V19.3281C128.359 18.474 128.188 17.849 127.844 17.4531C127.5 17.0469 126.875 16.8438 125.969 16.8438C124.938 16.8438 124.172 17.25 123.672 18.0625V30H118.406V13.0938H123.344Z" fill="#2B2D42"/>
</svg>
